<?xml version="1.0" standalone="no"?>
<!DOCTYPE svg PUBLIC "-//W3C//DTD SVG 20010904//EN"
 "http://www.w3.org/TR/2001/REC-SVG-20010904/DTD/svg10.dtd">
<svg version="1.0" xmlns="http://www.w3.org/2000/svg"
 width="600.000000pt" height="600.000000pt" viewBox="0 0 600.000000 600.000000"
 preserveAspectRatio="xMidYMid meet">
<metadata>
Created by potrace 1.14, written by Peter Selinger 2001-2017
</metadata>
<g transform="translate(0.000000,600.000000) scale(0.100000,-0.100000)"
fill="#000000" stroke="none">
<path d="M0 3000 l0 -3000 3000 0 3000 0 0 3000 0 3000 -3000 0 -3000 0 0
-3000z m3855 1607 c848 -457 881 -477 915 -523 l35 -48 3 -887 2 -887 -32 -62
c-33 -63 -34 -64 -768 -627 -404 -309 -750 -568 -769 -574 -18 -6 -52 -9 -75
-6 -30 4 -305 148 -921 480 -848 457 -881 476 -915 523 l-35 48 -3 887 -2 887
32 62 c33 63 34 64 763 623 402 308 744 566 760 573 76 36 64 41 1010 -469z"/>
<path d="M2862 4805 c-86 -24 -152 -87 -152 -145 0 -35 28 -79 71 -110 82 -59
225 -65 327 -13 63 32 90 62 98 113 18 111 -182 201 -344 155z"/>
<path d="M3981 4193 c-32 -10 -69 -31 -92 -52 -65 -62 -64 -120 2 -183 49 -47
102 -63 204 -63 132 0 227 59 241 147 18 112 -191 201 -355 151z"/>
<path d="M2936 4133 c-27 -9 -66 -33 -87 -53 -59 -56 -63 -109 -14 -168 65
-78 243 -103 356 -51 69 33 104 78 104 136 0 50 -27 83 -100 120 -65 34 -187
41 -259 16z"/>
<path d="M1899 4075 c-25 -8 -66 -32 -90 -54 -39 -35 -44 -43 -44 -82 0 -78
68 -138 180 -159 158 -30 315 52 315 164 0 33 -51 91 -104 118 -53 28 -190 35
-257 13z"/>
<path d="M4495 3657 c-51 -29 -127 -128 -154 -203 -29 -75 -30 -158 -3 -193
46 -61 147 -15 224 103 47 72 68 141 68 218 0 95 -50 123 -135 75z"/>
<path d="M1533 3486 c-25 -22 -28 -30 -28 -88 1 -108 73 -227 172 -282 124
-70 215 -23 200 103 -22 184 -242 355 -344 267z"/>
<path d="M3040 3471 c-45 -15 -85 -39 -115 -71 -24 -25 -30 -40 -30 -75 0
-105 147 -179 304 -154 36 5 85 21 109 35 44 26 82 84 82 125 0 36 -41 86 -95
116 -42 23 -64 28 -140 30 -49 1 -101 -1 -115 -6z"/>
<path d="M3595 2950 c-16 -4 -40 -12 -51 -18 -37 -20 -103 -103 -137 -171 -27
-57 -32 -77 -32 -144 0 -71 2 -81 24 -98 32 -26 60 -24 112 11 94 62 171 203
173 316 1 83 -28 118 -89 104z"/>
<path d="M1548 2935 c-34 -19 -52 -74 -44 -132 18 -135 161 -283 273 -283 93
0 127 85 82 205 -17 46 -38 76 -93 131 -90 89 -155 113 -218 79z"/>
<path d="M2663 2876 c-25 -22 -28 -30 -28 -88 1 -117 79 -237 189 -289 69 -33
83 -35 130 -15 94 39 66 207 -56 329 -89 90 -177 113 -235 63z"/>
<path d="M4495 2527 c-51 -29 -127 -128 -154 -203 -29 -75 -30 -158 -3 -193
46 -61 147 -15 224 103 47 72 68 141 68 218 0 95 -50 123 -135 75z"/>
<path d="M1533 2356 c-25 -22 -28 -30 -28 -88 1 -141 124 -293 255 -314 153
-25 159 188 10 336 -91 92 -179 116 -237 66z"/>
<path d="M2679 2326 c-109 -62 -18 -309 143 -392 62 -32 118 -32 155 0 25 22
28 31 28 88 0 103 -67 212 -175 284 -46 30 -116 39 -151 20z"/>
<path d="M3595 1820 c-46 -10 -70 -26 -114 -77 -89 -101 -135 -258 -97 -331
32 -62 96 -52 175 29 150 152 174 410 36 379z"/>
<path d="M2665 1747 c-97 -83 21 -328 190 -392 61 -24 117 -9 141 37 21 41 14
117 -17 184 -28 59 -124 159 -173 179 -53 22 -110 19 -141 -8z"/>
</g>
</svg>
